<svg width="3268" height="2267" viewBox="0 0 3268 2267" fill="none" xmlns="http://www.w3.org/2000/svg">
<g clip-path="url(#clip0)">
<rect width="3268" height="2266" transform="translate(0 0.333008)" fill="#1D1D1D"/>
<path fill-rule="evenodd" clip-rule="evenodd" d="M3263.27 918.136L3318.57 886.213L3319.53 886.77L3264.23 918.693L3449.65 1025.73L3504.94 993.809L3505.91 994.366L3450.61 1026.29L3636.02 1133.33L3691.32 1101.4L3692.28 1101.96L3636.99 1133.88L3822.4 1240.92L3877.7 1209L3878.66 1209.56L3823.36 1241.48L4008.78 1348.52L4064.07 1316.6L4065.04 1317.15L4009.74 1349.07L4195.15 1456.11L4250.45 1424.19L4251.41 1424.75L4196.12 1456.67L4250.45 1488.04L4249.49 1488.59L4195.15 1457.23L4009.74 1564.27L4064.07 1595.63L4063.11 1596.19L4008.78 1564.82L3823.36 1671.86L3877.7 1703.23L3876.73 1703.78L3822.4 1672.42L3636.99 1779.46L3691.32 1810.82L3690.35 1811.38L3636.02 1780.01L3450.61 1887.05L3504.94 1918.42L3503.98 1918.97L3449.64 1887.61L3264.23 1994.65L3318.56 2026.01L3317.6 2026.57L3263.27 1995.2L3077.86 2102.24L3132.19 2133.61L3131.22 2134.17L3076.89 2102.8L2891.48 2209.84L2945.81 2241.2L2944.85 2241.76L2890.51 2210.39L2705.1 2317.43L2759.43 2348.8L2758.47 2349.36L2704.14 2317.99L2649.8 2349.36L2648.84 2348.8L2703.17 2317.43L2517.76 2210.4L2463.43 2241.76L2462.46 2241.2L2516.8 2209.84L2331.38 2102.8L2277.05 2134.17L2276.09 2133.61L2330.42 2102.24L2145.01 1995.2L2090.67 2026.57L2089.71 2026.01L2144.04 1994.65L1958.63 1887.61L1904.3 1918.97L1903.33 1918.42L1957.66 1887.05L1772.25 1780.01L1717.92 1811.38L1716.96 1810.82L1771.29 1779.46L1585.87 1672.42L1531.54 1703.78L1530.58 1703.23L1584.91 1671.86L1399.5 1564.82L1345.17 1596.19L1344.2 1595.63L1398.53 1564.27L1213.12 1457.23L1158.79 1488.59L1157.82 1488.04L1212.16 1456.67L1156.86 1424.75L1157.82 1424.19L1213.12 1456.11L1398.53 1349.07L1343.24 1317.15L1344.2 1316.59L1399.5 1348.52L1584.91 1241.48L1529.61 1209.56L1530.58 1209L1585.87 1240.92L1771.29 1133.88L1715.99 1101.96L1716.96 1101.4L1772.25 1133.33L1957.66 1026.29L1902.37 994.365L1903.33 993.809L1958.63 1025.73L2144.04 918.692L2088.75 886.77L2089.71 886.213L2145.01 918.135L2330.42 811.097L2275.12 779.174L2276.09 778.617L2331.38 810.54L2516.8 703.501L2461.5 671.579L2462.46 671.022L2517.76 702.945L2703.17 595.906L2647.88 563.984L2648.84 563.427L2704.14 595.349L2759.43 563.427L2760.4 563.984L2705.1 595.906L2890.51 702.945L2945.81 671.022L2946.77 671.579L2891.48 703.502L3076.89 810.54L3132.19 778.618L3133.15 779.175L3077.86 811.097L3263.27 918.136ZM1214.08 1456.67L1399.5 1563.71L1584.91 1456.67L1399.5 1349.63L1214.08 1456.67ZM1400.46 1564.27L1585.87 1671.3L1771.29 1564.27L1585.88 1457.23L1400.46 1564.27ZM1586.84 1671.86L1772.25 1778.9L1957.67 1671.86L1772.25 1564.82L1586.84 1671.86ZM1773.22 1779.46L1958.63 1886.49L2144.04 1779.46L1958.63 1672.42L1773.22 1779.46ZM1959.59 1887.05L2145.01 1994.09L2330.42 1887.05L2145.01 1780.01L1959.59 1887.05ZM2145.97 1994.65L2331.38 2101.69L2516.8 1994.65L2331.38 1887.61L2145.97 1994.65ZM2332.35 2102.24L2517.76 2209.28L2703.17 2102.24L2517.76 1995.2L2332.35 2102.24ZM2518.72 2209.84L2704.14 2316.88L2889.55 2209.84L2704.14 2102.8L2518.72 2209.84ZM3075.93 2102.24L2890.51 2209.28L2705.1 2102.24L2890.51 1995.2L3075.93 2102.24ZM2889.55 1994.65L2704.14 2101.69L2518.72 1994.65L2704.14 1887.61L2889.55 1994.65ZM2703.17 1887.05L2517.76 1994.09L2332.35 1887.05L2517.76 1780.01L2703.17 1887.05ZM2516.8 1779.46L2331.38 1886.49L2145.97 1779.46L2331.38 1672.42L2516.8 1779.46ZM2330.42 1671.86L2145.01 1778.9L1959.59 1671.86L2145.01 1564.82L2330.42 1671.86ZM2144.04 1564.27L1958.63 1671.3L1773.22 1564.27L1958.63 1457.23L2144.04 1564.27ZM1957.66 1456.67L1772.25 1563.71L1586.84 1456.67L1772.25 1349.63L1957.66 1456.67ZM1771.29 1349.07L1585.88 1456.11L1400.46 1349.07L1585.87 1242.04L1771.29 1349.07ZM2145.01 919.249L1959.59 1026.29L2145.01 1133.33L2330.42 1026.29L2145.01 919.249ZM2331.38 1025.73L2145.97 918.692L2331.38 811.654L2516.8 918.692L2331.38 1025.73ZM2331.38 1026.84L2145.97 1133.88L2331.38 1240.92L2516.8 1133.88L2331.38 1026.84ZM2517.76 1133.33L2332.35 1026.29L2517.76 919.249L2703.17 1026.29L2517.76 1133.33ZM2517.76 1134.44L2332.35 1241.48L2517.76 1348.52L2703.17 1241.48L2517.76 1134.44ZM2704.14 1240.92L2518.72 1133.88L2704.14 1026.84L2889.55 1133.88L2704.14 1240.92ZM2704.14 1242.04L2518.72 1349.07L2704.14 1456.11L2889.55 1349.07L2704.14 1242.04ZM2890.51 1348.52L2705.1 1241.48L2890.51 1134.44L3075.93 1241.48L2890.51 1348.52ZM2890.51 1349.63L2705.1 1456.67L2890.51 1563.71L3075.93 1456.67L2890.51 1349.63ZM3076.89 1456.11L2891.48 1349.07L3076.89 1242.04L3262.3 1349.07L3076.89 1456.11ZM3076.89 1457.23L2891.48 1564.27L3076.89 1671.3L3262.3 1564.27L3076.89 1457.23ZM3263.27 1563.71L3077.86 1456.67L3263.27 1349.63L3448.68 1456.67L3263.27 1563.71ZM3263.27 1564.82L3077.86 1671.86L3263.27 1778.9L3448.68 1671.86L3263.27 1564.82ZM3449.65 1671.3L3264.23 1564.27L3449.65 1457.23L3635.06 1564.27L3449.65 1671.3ZM3449.65 1672.42L3264.23 1779.46L3449.64 1886.5L3635.06 1779.46L3449.65 1672.42ZM3636.02 1778.9L3450.61 1671.86L3636.02 1564.82L3821.44 1671.86L3636.02 1778.9ZM3262.3 1994.65L3076.89 2101.69L2891.48 1994.65L3076.89 1887.61L3262.3 1994.65ZM3075.93 1887.05L2890.51 1994.09L2705.1 1887.05L2890.51 1780.01L3075.93 1887.05ZM2889.55 1779.46L2704.14 1886.49L2518.72 1779.46L2704.14 1672.42L2889.55 1779.46ZM2703.17 1671.86L2517.76 1778.9L2332.35 1671.86L2517.76 1564.82L2703.17 1671.86ZM2516.8 1564.27L2331.38 1671.3L2145.97 1564.27L2331.38 1457.23L2516.8 1564.27ZM2330.42 1456.67L2145.01 1563.71L1959.59 1456.67L2145.01 1349.63L2330.42 1456.67ZM2144.04 1349.07L1958.63 1456.11L1773.22 1349.07L1958.63 1242.04L2144.04 1349.07ZM1957.66 1241.48L1772.25 1348.52L1586.84 1241.48L1772.25 1134.44L1957.66 1241.48ZM2517.76 918.135L2332.35 811.097L2517.76 704.058L2703.17 811.097L2517.76 918.135ZM2704.14 1025.73L2518.72 918.692L2704.14 811.654L2889.55 918.693L2704.14 1025.73ZM2890.51 1133.33L2705.1 1026.29L2890.51 919.249L3075.93 1026.29L2890.51 1133.33ZM3076.89 1240.92L2891.48 1133.88L3076.89 1026.85L3262.3 1133.88L3076.89 1240.92ZM3263.27 1348.52L3077.86 1241.48L3263.27 1134.44L3448.68 1241.48L3263.27 1348.52ZM3449.65 1456.11L3264.23 1349.07L3449.65 1242.04L3635.06 1349.07L3449.65 1456.11ZM3636.02 1563.71L3450.61 1456.67L3636.02 1349.63L3821.44 1456.67L3636.02 1563.71ZM3822.4 1671.3L3636.99 1564.27L3822.4 1457.23L4007.81 1564.27L3822.4 1671.3ZM3448.68 1887.05L3263.27 1994.09L3077.86 1887.05L3263.27 1780.01L3448.68 1887.05ZM3262.3 1779.46L3076.89 1886.49L2891.48 1779.46L3076.89 1672.42L3262.3 1779.46ZM3075.93 1671.86L2890.51 1778.9L2705.1 1671.86L2890.51 1564.82L3075.93 1671.86ZM2889.55 1564.27L2704.14 1671.3L2518.72 1564.27L2704.14 1457.23L2889.55 1564.27ZM2703.17 1456.67L2517.76 1563.71L2332.35 1456.67L2517.76 1349.63L2703.17 1456.67ZM2516.8 1349.07L2331.38 1456.11L2145.97 1349.07L2331.38 1242.04L2516.8 1349.07ZM2330.42 1241.48L2145.01 1348.52L1959.59 1241.48L2145.01 1134.44L2330.42 1241.48ZM2144.04 1133.88L1958.63 1240.92L1773.22 1133.88L1958.63 1026.84L2144.04 1133.88ZM2704.14 810.54L2518.72 703.501L2704.14 596.463L2889.55 703.502L2704.14 810.54ZM2890.51 918.136L2705.1 811.097L2890.51 704.058L3075.93 811.097L2890.51 918.136ZM3076.89 1025.73L2891.48 918.693L3076.89 811.654L3262.3 918.693L3076.89 1025.73ZM3263.27 1133.33L3077.86 1026.29L3263.27 919.25L3448.68 1026.29L3263.27 1133.33ZM3449.65 1240.92L3264.23 1133.88L3449.65 1026.84L3635.06 1133.88L3449.65 1240.92ZM3636.02 1348.52L3450.61 1241.48L3636.02 1134.44L3821.43 1241.48L3636.02 1348.52ZM3822.4 1456.11L3636.99 1349.07L3822.4 1242.04L4007.81 1349.07L3822.4 1456.11ZM4008.78 1563.71L3823.36 1456.67L4008.78 1349.63L4194.19 1456.67L4008.78 1563.71Z" fill="url(#paint0_radial)"/>
</g>
<defs>
<radialGradient id="paint0_radial" cx="0" cy="0" r="1" gradientUnits="userSpaceOnUse" gradientTransform="translate(2704.14 1456.39) rotate(90) scale(673.966 1167.81)">
<stop stop-color="white" stop-opacity="0.28"/>
<stop offset="1" stop-color="white" stop-opacity="0"/>
</radialGradient>
<clipPath id="clip0">
<rect width="3268" height="2266" fill="white" transform="translate(0 0.333008)"/>
</clipPath>
</defs>
</svg>
